<?xml version="1.0" standalone="no"?>
<!DOCTYPE svg PUBLIC "-//W3C//DTD SVG 20010904//EN"
 "http://www.w3.org/TR/2001/REC-SVG-20010904/DTD/svg10.dtd">
<svg version="1.0" xmlns="http://www.w3.org/2000/svg"
 width="50pt" height="50pt" viewBox="0 0 512.000000 512.000000"
 preserveAspectRatio="xMidYMid meet">

<g transform="translate(0.000000,512.000000) scale(0.100000,-0.100000)"
fill="#000000" stroke="none">
<path d="M1475 4961 c-80 -20 -154 -86 -179 -159 -11 -30 -16 -82 -16 -154 l0
-108 -108 0 c-129 0 -182 -15 -236 -67 -65 -63 -79 -103 -84 -234 l-4 -116
-112 -5 c-127 -6 -180 -24 -235 -79 -58 -57 -71 -99 -71 -230 l0 -117 -122 -4
c-102 -3 -130 -7 -164 -25 -53 -28 -96 -71 -120 -120 -18 -37 -19 -81 -22
-1176 l-2 -1138 24 -24 c32 -32 70 -32 101 0 l25 24 0 1120 0 1121 29 32 29
33 1549 2 c1225 2 1553 0 1573 -10 14 -7 33 -28 42 -47 17 -33 18 -120 18
-1392 l0 -1357 -270 -3 c-296 -3 -293 -3 -306 -65 -5 -26 -1 -37 19 -57 l26
-26 266 0 265 0 0 -90 c0 -56 -5 -104 -14 -125 -30 -70 92 -65 -1608 -65
-1515 0 -1533 0 -1566 20 -18 11 -37 32 -42 46 -6 14 -10 144 -10 295 l0 270
-25 24 c-31 32 -69 32 -101 0 l-25 -25 3 -298 c3 -282 4 -299 25 -337 25 -47
74 -95 123 -121 34 -18 96 -19 1594 -22 1766 -3 1630 -9 1716 77 43 43 59 73
74 142 5 25 7 25 103 27 647 12 1228 456 1417 1083 48 159 60 251 60 439 0
194 -15 305 -62 444 -22 66 -32 83 -55 94 -37 18 -81 1 -97 -37 -9 -23 -6 -43
14 -114 95 -327 64 -692 -84 -988 -65 -129 -144 -242 -242 -345 -190 -199
-411 -327 -673 -390 -102 -24 -304 -45 -351 -36 l-24 4 0 393 0 392 84 6 c258
18 474 197 531 439 19 82 19 205 -1 282 -38 147 -153 296 -281 364 -76 40
-197 72 -275 72 l-58 0 0 401 0 401 108 -7 c292 -19 532 -103 755 -262 97 -70
226 -198 287 -284 67 -94 94 -119 129 -119 34 0 71 39 71 74 0 12 -16 44 -35
73 l-34 51 -3 974 -3 973 -24 48 c-13 26 -42 63 -64 82 -80 69 23 65 -1681 64
-848 -1 -1554 -4 -1571 -8z m3142 -161 c21 -13 35 -31 42 -57 7 -25 11 -322
11 -887 l0 -849 -52 46 c-29 26 -92 75 -140 109 l-88 63 0 546 c0 592 -1 602
-55 673 -16 21 -49 49 -74 64 l-46 27 -1027 3 -1026 2 -21 -26 c-28 -35 -26
-69 4 -99 l24 -25 1002 0 1001 0 34 -34 34 -34 0 -506 c0 -278 -2 -506 -5
-506 -2 0 -37 13 -77 29 -40 16 -101 37 -135 46 l-63 18 0 261 c0 294 -3 308
-76 378 -83 79 48 73 -1502 76 l-1384 2 4 106 c3 105 3 106 36 135 l32 29 401
0 400 0 24 25 c14 13 25 36 25 50 0 14 -11 37 -25 50 l-24 25 -221 0 -220 0 0
104 c0 90 3 107 21 130 12 15 31 32 43 36 11 5 712 9 1556 9 1503 1 1536 1
1567 -19z m-873 -844 c64 -27 66 -35 66 -294 l0 -234 -27 6 c-16 3 -76 8 -135
12 l-107 6 -16 55 c-18 62 -69 124 -129 156 l-41 22 -1387 3 -1388 2 0 104 c0
97 2 107 25 135 14 16 36 32 48 34 12 2 705 5 1540 6 1278 1 1523 -1 1551 -13z
m-54 -1617 c240 -55 385 -310 312 -546 -55 -177 -228 -303 -414 -303 l-48 0 0
85 0 85 49 0 c222 0 342 248 205 427 -40 53 -105 85 -185 91 l-69 5 0 83 0 84
53 0 c28 0 72 -5 97 -11z m-47 -320 c39 -20 57 -51 56 -99 0 -62 -43 -110
-100 -110 -57 0 -59 4 -59 110 0 69 4 100 13 103 22 9 68 7 90 -4z"/>
<path d="M1436 2691 c-278 -34 -300 -38 -317 -60 -17 -21 -19 -43 -19 -273 0
-208 -2 -249 -14 -245 -35 14 -106 18 -142 8 -186 -50 -255 -266 -130 -409
113 -129 331 -100 408 56 21 44 23 62 28 272 l5 225 220 27 c121 15 223 27
228 27 4 1 7 -30 7 -67 l0 -69 -48 10 c-144 30 -284 -71 -299 -215 -24 -238
261 -368 428 -196 67 69 69 85 69 515 l0 384 -25 24 c-31 32 -27 32 -399 -14z
m274 -171 c0 -27 -1 -50 -2 -50 -2 0 -95 -11 -208 -25 -272 -33 -250 -35 -250
23 l0 49 198 22 c108 13 202 24 207 26 6 2 20 4 33 4 20 1 22 -4 22 -49z m-51
-484 c30 -16 51 -53 51 -92 0 -38 -59 -94 -100 -94 -43 0 -100 56 -100 97 1
79 78 125 149 89z m-592 -87 c46 -44 37 -126 -18 -154 -67 -35 -136 -2 -146
70 -12 92 96 147 164 84z"/>
<path d="M2500 2464 c-107 -13 -205 -28 -218 -34 -12 -5 -27 -21 -32 -36 -6
-14 -10 -132 -10 -264 l0 -239 -32 10 c-124 35 -265 -45 -302 -172 -20 -65
-20 -73 0 -138 18 -61 70 -123 128 -154 54 -28 165 -30 216 -3 49 25 88 64
113 111 20 37 22 59 27 270 l5 230 135 17 c74 9 159 19 189 23 37 5 61 14 77
30 23 23 24 30 24 175 0 147 -1 152 -25 175 -30 31 -37 31 -295 -1z m170 -184
c0 -27 -1 -50 -3 -50 -1 0 -57 -7 -122 -15 -167 -21 -155 -23 -155 34 l0 49
103 11 c56 7 109 14 117 15 55 12 60 8 60 -44z m-453 -555 c25 -28 30 -82 13
-116 -13 -24 -61 -49 -94 -49 -14 0 -40 13 -57 28 -26 24 -32 36 -32 72 0 37
5 48 33 73 28 25 38 28 74 24 27 -4 49 -15 63 -32z"/>
<path d="M690 1053 c-51 -19 -68 -85 -30 -123 20 -20 33 -20 1108 -20 l1089 0
21 23 c36 38 28 88 -19 112 -24 13 -177 15 -1091 14 -585 0 -1070 -3 -1078 -6z"/>
<path d="M1105 743 c-36 -9 -55 -34 -55 -73 0 -74 -44 -70 718 -70 669 0 682
0 702 20 38 38 22 100 -31 119 -32 11 -1290 15 -1334 4z"/>
</g>
</svg>
